<svg xmlns="http://www.w3.org/2000/svg" width="500" height="500" style="width:100%;height:100%;content-visibility:visible"><defs><clipPath id="b"><path d="M0 0h500v500H0z"/></clipPath><filter id="a" filterUnits="objectBoundingBox" x="0%" y="0%" width="100%" height="100%"><feComponentTransfer in="SourceGraphic"><feFuncA type="table" tableValues="1.0 0.0"/></feComponentTransfer></filter><mask id="c"><g filter="url(#a)"><g display="block"><path fill-opacity="0" stroke="#121331" stroke-width="0" d="M418 211v163H99V211h319z"/><path fill="red" d="M159.5-81.5v163h-319v-163h319z" transform="translate(258.5 292.5)"/></g></g></mask></defs><g clip-path="url(#b)"><g mask="url(#c)" display="block"><path stroke-linecap="round" stroke-linejoin="round" stroke="#121331" stroke-width="12.04" d="M194.31 364.726v44.894h-61.631v-44.894M367.32 364.726v44.894h-61.63v-44.894" fill="none"/></g><path stroke-linecap="round" stroke-linejoin="round" stroke="#08A88A" stroke-width="12.04" d="M364.058 136.938l39.768-5.941 3.38 66.016M135.943 136.94l-39.768-5.941-3.38 66.016" fill="none" display="block"/><g display="block"><path stroke-linecap="round" stroke-linejoin="round" stroke="#121331" stroke-width="12.04" d="M364.156 256.572v-135.91c0-16.77-13.6-30.36-30.37-30.36h-167.38c-16.77 0-30.37 13.59-30.37 30.36v135.91" fill="none"/><path stroke-linecap="round" stroke-linejoin="round" stroke="#121331" stroke-width="12.04" d="M150.834 253.559h198.524c20.921 0 37.88 16.96 37.88 37.88v83.21H112.955v-83.21c0-20.92 16.96-37.88 37.88-37.88zM364.152 136.859H136.04" fill="none"/><path stroke-linecap="round" stroke-linejoin="round" stroke="#08A88A" stroke-width="12.04" d="M148.231 312.43h51.358V284.56h-51.358v27.872zM351.961 312.43h-51.358V284.56h51.358v27.872z" fill="none"/><path stroke-linecap="round" stroke-linejoin="round" stroke="#121331" stroke-width="12.04" d="M387.239 343.762H112.954" fill="none"/><path stroke-linecap="round" stroke-linejoin="round" stroke="#08A88A" stroke-width="12.04" d="M272.065 168.658h-43.938" fill="none"/><path stroke-linecap="round" stroke-linejoin="round" stroke="#121331" stroke-width="12.04" d="M266.134 312.43h-32.076" fill="none"/><g><path stroke-linecap="round" stroke-linejoin="round" stroke="#121331" stroke-width="12.04" d="M202.512 90.303v46.556M297.68 90.303v46.556" fill="none"/></g></g></g></svg>